<?xml version="1.0" encoding="UTF-8" standalone="no"?>
<!DOCTYPE svg PUBLIC "-//W3C//DTD SVG 1.1//EN" "http://www.w3.org/Graphics/SVG/1.1/DTD/svg11.dtd">
<svg width="100%" height="100%" viewBox="0 0 64 64" version="1.1" xmlns="http://www.w3.org/2000/svg" xmlns:xlink="http://www.w3.org/1999/xlink" xml:space="preserve" xmlns:serif="http://www.serif.com/" style="fill-rule:evenodd;clip-rule:evenodd;stroke-linejoin:round;stroke-miterlimit:2;">
    <g id="Layer-1" serif:id="Layer 1">
        <g id="g13" transform="matrix(0.27329,0,0,0.27329,3.59596,12.3964)">
            <path id="path3-6" d="M65.44,168.205C76.924,159.758 78.418,150.12 72.38,144.213C82.356,145.853 90.989,159.391 81.426,170.248C76.404,175.163 68.59,181.956 63.791,188.186C62.044,186.069 61.884,172.546 65.44,168.205Z" style="fill:white;fill-rule:nonzero;"/>
            <path id="path5" d="M116.765,193.472C135.51,177.236 137.423,163.863 133.629,149.676C150.687,159.263 156.298,184.841 138.757,201.117C132.643,194.428 121.91,193.153 116.765,193.472Z" style="fill:white;fill-rule:nonzero;"/>
            <path id="path7" d="M146.896,226.873C147.089,211.558 143.868,208.978 141.498,204.835C148.088,199.656 156.234,191.965 155.453,178.665C162.286,185.096 168.012,199.366 164.297,211.329C161.498,216.153 153.648,223.036 146.896,226.873Z" style="fill:white;fill-rule:nonzero;"/>
            <path id="path9" d="M56.723,169.221C55.605,180.649 56.72,187.218 59.225,193.745C56.759,197.035 46.203,212.424 52.17,231.235C43.871,227.149 33.183,198.012 56.723,169.221Z" style="fill:white;fill-rule:nonzero;"/>
            <path id="path13" d="M56.883,232.838C51.273,211.281 61.822,194.188 79.92,177.639C99.765,158.734 109.813,143.774 82.699,118.898C132.053,122.608 139.756,170.39 102.889,197.325C93.155,203.975 80.967,219.628 93.054,231.646C105.53,241.189 121.857,232.433 120.18,219.29C118.243,209.887 105.77,205.908 96.41,213.985C98.286,201.799 115.536,193.536 130.273,200.948C147.773,211.193 147.584,239.374 126.911,252.883C105.417,264.058 67.005,260.261 56.883,232.838Z" style="fill:white;fill-rule:nonzero;"/>
        </g>
        <g id="g8" transform="matrix(0.27329,0,0,0.27329,3.59596,-51.6036)">
            <path id="path1" d="M65.44,168.205C76.924,159.758 78.418,150.12 72.38,144.213C82.356,145.853 90.989,159.391 81.426,170.248C76.404,175.163 68.59,181.956 63.791,188.186C62.044,186.069 61.884,172.546 65.44,168.205Z" style="fill:white;fill-rule:nonzero;"/>
            <path id="path2" d="M116.765,193.472C135.51,177.236 137.423,163.863 133.629,149.676C150.687,159.263 156.298,184.841 138.757,201.117C132.643,194.428 121.91,193.153 116.765,193.472Z" style="fill:white;fill-rule:nonzero;"/>
            <path id="path3" d="M146.896,226.873C147.089,211.558 143.868,208.978 141.498,204.835C148.088,199.656 156.234,191.965 155.453,178.665C162.286,185.096 168.012,199.366 164.297,211.329C161.498,216.153 153.648,223.036 146.896,226.873Z" style="fill:white;fill-rule:nonzero;"/>
            <path id="path4" d="M56.723,169.221C55.605,180.649 56.72,187.218 59.225,193.745C56.759,197.035 46.203,212.424 52.17,231.235C43.871,227.149 33.183,198.012 56.723,169.221Z" style="fill:white;fill-rule:nonzero;"/>
            <path id="path6" d="M139.498,245.662C142.839,241.308 145.63,236.086 146.329,233.767C151.043,231.505 155.087,228.592 160.605,223.498C161.807,226.738 147.68,244.063 139.498,245.662Z" style="fill:white;fill-rule:nonzero;"/>
            <path id="path8" d="M56.883,232.838C51.273,211.281 61.822,194.188 79.92,177.639C99.765,158.734 109.813,143.774 82.699,118.898C132.053,122.608 139.756,170.39 102.889,197.325C93.155,203.975 80.967,219.628 93.054,231.646C105.53,241.189 121.857,232.433 120.18,219.29C118.243,209.887 105.77,205.908 96.41,213.985C98.286,201.799 115.536,193.536 130.273,200.948C147.773,211.193 147.584,239.374 126.911,252.883C105.417,264.058 67.005,260.261 56.883,232.838Z" style="fill:white;fill-rule:nonzero;"/>
        </g>
        <g id="g17" transform="matrix(0.27329,0,0,0.27329,35.596,-19.6036)">
            <path id="path10" d="M65.44,168.205C76.924,159.758 78.418,150.12 72.38,144.213C82.356,145.853 90.989,159.391 81.426,170.248C76.404,175.163 68.59,181.956 63.791,188.186C62.044,186.069 61.884,172.546 65.44,168.205Z" style="fill:white;fill-rule:nonzero;"/>
            <path id="path15" d="M56.723,169.221C55.605,180.649 56.72,187.218 59.225,193.745C56.759,197.035 46.203,212.424 52.17,231.235C43.871,227.149 33.183,198.012 56.723,169.221Z" style="fill:white;fill-rule:nonzero;"/>
            <path id="path17" d="M56.883,232.838C51.273,211.281 61.822,194.188 79.92,177.639C99.765,158.734 109.813,143.774 82.699,118.898C132.053,122.608 139.756,170.39 102.889,197.325C93.155,203.975 80.967,219.628 93.054,231.646C105.53,241.189 121.857,232.433 120.18,219.29C118.243,209.887 105.77,205.908 96.41,213.985C98.286,201.799 115.536,193.536 130.273,200.948C147.773,211.193 147.584,239.374 126.911,252.883C105.417,264.058 67.005,260.261 56.883,232.838Z" style="fill:white;fill-rule:nonzero;"/>
        </g>
        <g id="g23" transform="matrix(0.27329,0,0,0.27329,-28.404,-19.6036)">
            <path id="path19" d="M116.765,193.472C135.51,177.236 137.423,163.863 133.629,149.676C150.687,159.263 156.298,184.841 138.757,201.117C132.643,194.428 121.91,193.153 116.765,193.472Z" style="fill:white;fill-rule:nonzero;"/>
            <path id="path20" d="M146.896,226.873C147.089,211.558 143.868,208.978 141.498,204.835C148.088,199.656 156.234,191.965 155.453,178.665C162.286,185.096 168.012,199.366 164.297,211.329C161.498,216.153 153.648,223.036 146.896,226.873Z" style="fill:white;fill-rule:nonzero;"/>
            <path id="path22" d="M139.498,245.662C142.839,241.308 145.63,236.086 146.329,233.767C151.043,231.505 155.087,228.592 160.605,223.498C161.807,226.738 147.68,244.063 139.498,245.662Z" style="fill:white;fill-rule:nonzero;"/>
            <path id="path23" d="M56.883,232.838C51.273,211.281 61.822,194.188 79.92,177.639C99.765,158.734 109.813,143.774 82.699,118.898C132.053,122.608 139.756,170.39 102.889,197.325C93.155,203.975 80.967,219.628 93.054,231.646C105.53,241.189 121.857,232.433 120.18,219.29C118.243,209.887 105.77,205.908 96.41,213.985C98.286,201.799 115.536,193.536 130.273,200.948C147.773,211.193 147.584,239.374 126.911,252.883C105.417,264.058 67.005,260.261 56.883,232.838Z" style="fill:white;fill-rule:nonzero;"/>
        </g>
    </g>
</svg>
