<svg viewBox="0 0 128 128" xml:space="preserve" style="fill-rule:evenodd;clip-rule:evenodd;stroke-linecap:round;stroke-linejoin:round;stroke-miterlimit:2" xmlns="http://www.w3.org/2000/svg">
    <path style="fill:#fff;fill-rule:nonzero;stroke:#000;stroke-width:4;stroke-dasharray:none;paint-order:stroke markers fill" d="M31.143 20.143c-1.63.048-3.052.804-3.827 2.668 1.193 5.091 5.308 8.639 8.442 12.568 3.998 4.558-2.872 7.843-6.084 9.922-4.456 2.639-6.258 9.836-1.92 13.41 8.052 5.283 13.796-22.095 15.502-7.145.346 6.484 8.8 10.567 14.09 6.83-1.824-5.185-5.055-9.733-8.201-14.183-4.167-4.758 2.169-8.445 5.67-10.854 3.89-2.312 4.72-7.774 1.796-11.162-5.226-5.187-8.55 4.11-11.004 7.633-4.136 7.991-3.466-10.012-14.464-9.687zm44.45 48.01c-9.182 1.272 1.847 12.02 4.495 15.226 3.998 4.558-2.872 7.843-6.084 9.922-4.455 2.639-6.258 9.836-1.92 13.41 8.052 5.283 13.797-22.095 15.502-7.145.346 6.484 8.8 10.567 14.09 6.83a25.13 25.13 0 0 0-.662-1.767c-2.09-5.303-6.075-9.546-8.584-14.592-1.802-5.567 6.146-6.499 8.338-10.332 3.725-2.918 1.982-10.555-2.914-10.904-4.789.61-5.634 6.337-8.057 9.629-5.534 4.566-3.076-10.15-14.203-10.278Z"/>
    <path d="M88.11 19.794c-21.053-.744-24.699 21.625-19.43 32.922 4.122 8.101 15.426 9.276 22.837 5.273 14.38-8.086 14.427-38.298-3.407-38.195zm-2.066 8.576c8.24-.185 7.313 22.458-2.82 23.148-9.831-.704-8.678-22.89 2.82-23.148zM47.686 67.794c-21.054-.745-24.7 21.621-19.43 32.922 4.122 8.101 15.426 9.276 22.837 5.273 14.377-8.085 14.424-38.298-3.407-38.195zm-.67 8.789c7.093 3.251 4.906 22.314-4.216 22.935-11.576-.83-6.38-26.582 4.217-22.935z" style="fill:red;fill-rule:nonzero;stroke:#00f;stroke-width:6;stroke-dasharray:none;paint-order:stroke markers fill"/>
</svg>
