<svg width="128" height="128" xmlns="http://www.w3.org/2000/svg">
    <path style="baseline-shift:baseline;display:inline;overflow:visible;opacity:1;vector-effect:none;stroke-width:.712002;stroke-linecap:round;stroke-linejoin:round;paint-order:stroke fill markers;enable-background:accumulate;stop-color:#000;stop-opacity:1" d="M121.629-25.053c-1.572-.377 2.56.062 3.468.219.252-.01.403-.014.434-.014.736.005 1.976.017 1.976 1.163v.012c.657.06 1.35 2.284 1.35 3.14 0 .106-.01.201-.031.29.249.17.416.439.416.86 0 .646-.403.933-.881 1.061-.144.667-1.443 2.904-2.795 2.99-.813.623-3.135.635-4.555.635-.962 0-118.452-2.797-118.452-3.164 0-.09 2.913-.206 7.316-.33-2.963-.096-4.8-.185-4.8-.257v-.001h.001v-.002l.002-.001v-.002l.002-.001c.078-.048.947-.103 2.4-.163-2.025-.074-3.226-.143-3.226-.202 0-.06 1.33-.133 3.555-.213C2.8-19.168-.6-19.298-.6-19.396c0-.098 3.43-.226 8.47-.363-5.87-.15-10.01-.296-10.01-.403 0-.094 3.135-.217 7.816-.347.41-.036 1.172-.075 2.219-.117-3.851-.114-6.338-.22-6.338-.305 0-.065 1.54-.144 4.074-.23-2.041-.076-3.252-.146-3.252-.204 0-.077 2.088-.172 5.402-.275-2.849-.093-4.605-.179-4.605-.25 0-.366 119.389-2.938 118.453-3.163z"/>
    <path style="fill:#ff0505;fill-opacity:1;stroke:none;stroke-width:1.50346;stroke-linecap:round;stroke-linejoin:round;paint-order:stroke fill markers" d="M29.273 9.884c-.25-.23-.166-.237.454.257.54.43 1.016.903 1.258 1.18.12.101.199.173.21.183.348.329.895.908.496 1.263a.116.116 0 0 0-.004.004c.27.346-.277 1.28-.586 1.522a.49.49 0 0 1-.114.068c.023.156-.02.3-.174.416-.234.175-.465.087-.66-.062-.267.129-1.476.302-1.896-.043-.382-.034-1.293-.69-1.77-.981-.053-.032-.996-.766-2.838-1.242-1.625-.423-4.17-.577-6.709.604-3.36 1.485-6.752 6.491-5.152 11.297.665 2.195 2.224 4.175 4.216 5.423 2.113 1.331 4.684 1.826 7.026 1.526 4.162-.517 7.121-3.412 8.293-6.02 1.53-3.369.528-6.1.561-6.107.04-.009.55 1.473.404 3.666.178-1.468.04-2.43.073-2.434h.001l.001.002h.001c.027.038.118.483.159 1.23.015-1.042-.077-1.673-.05-1.677.027-.004.2.686.239 1.845.055-2.61-.624-4.4-.582-4.413.043-.014.854 1.746.91 4.447.075-3.144-.905-5.332-.859-5.35.04-.015.857 1.57 1.145 4.143.035.213.09.656.106 1.224.062-2.13-.338-3.51-.3-3.52.029-.007.32.822.488 2.245-.07-1.152-.216-1.831-.19-1.837.035-.007.418 1.149.46 3.051.046-1.635-.166-2.644-.134-2.65.032-.006 1.192 2.757-.352 6.994-1.314 3.255-4.665 7.002-9.952 7.923-2.944.505-6.196.04-9.054-1.578a13.29 13.29 0 0 1-5.92-7.022c-2.307-6.815 1.577-13.488 6.625-16.144 3.537-1.81 7.076-1.788 9.568-1.262 3.135.666 4.674 1.895 4.602 1.83zM68.084 75.89c.328-.091.29-.016-.457.25-.65.233-1.303.388-1.666.448-.15.047-.252.077-.267.081-.462.123-1.243.282-1.335-.244v-.005c-.437.046-.943-.91-.985-1.3a.49.49 0 0 1 .003-.133.412.412 0 0 1-.262-.367c-.026-.292.17-.441.4-.53.032-.293.522-1.412 1.037-1.587.23-.307 1.268-.735 1.767-.988.054-.027 1.175-.442 2.55-1.756 1.217-1.158 2.689-3.239 3.024-6.02.51-3.637-1.956-9.159-6.883-10.333-2.216-.592-4.72-.31-6.83.724-2.246 1.093-4.022 3.017-5.002 5.166-1.755 3.808-.854 7.85.743 10.22 2.057 3.076 4.906 3.665 4.895 3.697-.015.039-1.542-.31-3.328-1.59 1.152.925 2.043 1.316 2.03 1.345h-.002v.001h-.003c-.046.003-.472-.153-1.127-.512.876.561 1.461.816 1.45.84-.01.026-.688-.19-1.694-.769 2.19 1.423 4.068 1.789 4.057 1.832-.01.044-1.934-.194-4.259-1.571 2.633 1.721 5.008 2.042 4.999 2.09-.008.042-1.784-.099-4.124-1.21-.2-.083-.605-.27-1.096-.556 1.778 1.176 3.162 1.564 3.15 1.6-.01.03-.868-.16-2.165-.768 1.015.549 1.67.782 1.66.807-.011.033-1.195-.25-2.834-1.218 1.365.902 2.334 1.253 2.322 1.283-.012.031-2.97-.44-5.757-3.986-2.074-2.832-3.491-7.655-1.487-12.633a13.754 13.754 0 0 1 6.115-6.862 13.29 13.29 0 0 1 9.088-1.329c7.007 1.633 10.63 8.452 10.225 14.14-.326 3.961-2.21 6.956-3.971 8.797-2.219 2.313-4.075 2.973-3.98 2.946z"/>
    <path style="fill:#fff;fill-opacity:1;stroke:none;stroke-width:1.50346;stroke-linecap:round;stroke-linejoin:round;paint-order:stroke fill markers" d="M116.758 28.332c.209-.269.223-.185-.218.473a10.52 10.52 0 0 1-1.073 1.35 8.498 8.498 0 0 1-.166.225c-.299.374-.831.967-1.218.598a.014.014 0 0 0-.004-.003c-.323.297-1.3-.17-1.565-.459a.488.488 0 0 1-.077-.108.412.412 0 0 1-.429-.14c-.194-.218-.125-.455.007-.663-.15-.255-.422-1.445-.112-1.893.002-.383.582-1.345.832-1.845.027-.054.681-1.055 1.004-2.93.288-1.654.233-4.202-1.153-6.636-1.755-3.227-7.024-6.196-11.682-4.207-2.133.844-3.978 2.56-5.058 4.648-1.153 2.215-1.435 4.817-.944 7.127.857 4.106 3.986 6.817 6.68 7.77 3.484 1.248 6.124.025 6.134.058.012.04-1.423.67-3.62.703 1.477.058 2.425-.159 2.431-.126v.001h-.001v.001l-.001.001c-.035.03-.471.157-1.211.259 1.038-.07 1.66-.214 1.666-.188.006.027-.667.257-1.82.39 2.606-.16 4.334-.983 4.35-.942.018.041-1.669.994-4.357 1.272 3.14-.184 5.24-1.34 5.261-1.295.019.038-1.492.982-4.034 1.481-.21.053-.646.144-1.211.206 2.128-.113 3.471-.625 3.483-.589.01.029-.793.388-2.197.672 1.143-.164 1.807-.366 1.815-.34.01.033-1.11.51-3.003.708 1.634-.088 2.622-.382 2.63-.351.01.032-2.65 1.414-6.999.224-3.352-1.042-7.362-4.073-8.714-9.267a13.754 13.754 0 0 1 .829-9.153 13.29 13.29 0 0 1 6.511-6.478c6.603-2.858 13.573.464 16.634 5.277 2.095 3.376 2.364 6.905 2.045 9.432-.406 3.179-1.505 4.814-1.445 4.737z"/>
    <path style="fill:#000;fill-opacity:1;stroke:none;stroke-width:3.99874;stroke-linecap:round;stroke-linejoin:round;paint-order:stroke fill markers" d="M70.535 65.183c-.505-.967 1.243 1.083 1.612 1.631.136.095.217.153.233.165.374.307 1.003.828.156 1.894a2.382 2.382 0 0 0-.008.01c.293.325-.987 2.682-1.617 3.478-.078.099-.155.184-.23.257.003.262-.107.581-.417.974-.476.601-.898.703-1.243.624-.566.56-2.902 2.104-3.676 1.617-.891.24-2.119-.726-2.866-1.328-.143-.116-5.088-4.324-11.743-10.789-6.964-6.765-14.62-14.967-21.416-24.462-3.766-5.283-6.93-10.58-9.427-15.017-4.136-7.346-6.804-12.319-6.705-12.382.091-.058 1.238 1.487 2.904 3.888-.94-1.727-1.498-2.812-1.426-2.857h.006l.001-.001h.002c.076.013.438.465 1.008 1.244-.636-1.186-.992-1.9-.933-1.937.061-.04.605.659 1.466 1.86-1.621-2.902-2.717-4.874-2.62-4.937.098-.064 1.463 1.76 3.373 4.515-1.912-3.402-3.274-5.8-3.167-5.87.093-.06 1.36 1.606 3.148 4.161.182.208.491.613.902 1.178-1.242-2.246-2.03-3.71-1.947-3.764.066-.042.7.773 1.686 2.148-.648-1.2-1.014-1.926-.956-1.963.077-.049.924 1.067 2.198 2.877-.912-1.67-1.457-2.717-1.387-2.761.097-.062 3.278 4.551 7.896 11.166 2.83 4.05 6.341 8.872 10.311 13.494 7.295 8.528 15.397 15.759 22.77 21.717 7.028 5.68 12.2 9.34 12.112 9.17z" transform="matrix(.37598 0 0 .37598 193.399 -34.36)"/>
    <path style="fill:#000;fill-opacity:1;stroke:none;stroke-width:3.99874;stroke-linecap:round;stroke-linejoin:round;paint-order:stroke fill markers" d="M17.275 71.708c.761-.71-.861 1.487-1.424 2.13-.08.168-.129.267-.14.288-.26.473-.7 1.277-1.67.767l-.009-.005c-.278.406-2.405-.11-3.133-.486a1.527 1.527 0 0 1-.236-.148c-.232.093-.52.09-.879-.094-.55-.282-.653-.683-.591-1.068-.517-.395-1.947-2.278-1.504-3.27-.223-.86.66-2.46 1.225-3.443.098-.17 3.266-5.588 8.857-12.815 5.916-7.65 13.367-15.752 22.692-23.795C57.451 15.114 76.389 4.557 76.48 4.702c.046.074-1.795 1.354-4.562 3.31 1.956-1.172 3.194-1.856 3.231-1.798l.001.001h-.001v.007c-.026.071-.56.474-1.466 1.128 1.345-.785 2.159-1.222 2.189-1.175.031.05-.794.654-2.184 1.646 3.293-1.98 5.577-3.24 5.627-3.16.05.08-2.123 1.56-5.288 3.768 3.847-2.322 6.622-3.853 6.676-3.765.047.076-1.936 1.426-4.877 3.46-.246.2-.713.544-1.363 1.013 2.526-1.508 4.19-2.424 4.233-2.357.034.054-.923.74-2.504 1.852 1.349-.779 2.166-1.213 2.195-1.165.04.062-1.26.982-3.323 2.438 1.868-1.105 3.043-1.747 3.079-1.69.09.143-17.662 11.661-32.985 26.66-8.667 8.487-15.4 16.807-20.581 24.496-4.884 7.249-7.439 12.465-7.302 12.337z" transform="matrix(.37598 0 0 .37598 193.399 -34.36)"/>
    <path style="fill:#fff;fill-opacity:1;stroke:none;stroke-width:1.50346;stroke-linecap:round;stroke-linejoin:round;paint-order:stroke fill markers" d="M76.219 91.603c-.019-.03-.877.443-2.116 1.188.523-.373.835-.6.823-.62-.012-.017-.319.147-.824.442.34-.246.543-.397.552-.424v-.002c-.014-.022-.48.235-1.215.676 1.04-.736 1.733-1.217 1.715-1.244-.034-.055-7.156 3.914-13.543 9.424a66.193 66.193 0 0 0-1.847 1.656c-1.477-1.723-2.782-3.519-3.836-5.027-1.737-2.488-2.933-4.223-2.97-4.2h-.001v.004l-.002.002c.002.06.204.445.525 1.034-.478-.68-.798-1.098-.828-1.08l-.002.001v.002c.003.05.137.317.362.733-.354-.493-.587-.795-.63-.809h-.003c-.032.02.265.572.732 1.416a7.463 7.463 0 0 0-.34-.443c-.672-.961-1.148-1.587-1.183-1.564-.04.026.472.927 1.191 2.207-.718-1.036-1.233-1.722-1.27-1.698-.036.024.377.766.987 1.858-.294-.41-.49-.664-.541-.698l-.002-.002h-.002l-.002-.002h-.006v.004h-.002v.002c.002.05.133.312.353.723-.207-.284-.34-.452-.375-.467h-.008c-.027.017.184.425.537 1.075-.626-.903-1.057-1.483-1.091-1.461-.038.023.966 1.892 2.521 4.654.94 1.668 2.127 3.66 3.543 5.646l.158.22a59.394 59.394 0 0 0-4.5 5.161c-2.102 2.717-3.293 4.755-3.33 4.819-.212.369-.544.97-.46 1.293-.167.372.371 1.082.566 1.23-.024.145.015.296.222.402.135.07.243.07.33.036.026.02.054.037.088.054.274.141 1.073.336 1.178.184.001 0 .003 0 .004.002.364.191.53-.111.629-.29l.053-.107c.168-.192.59-.757.609-.843v-.008l-.002-.002h-.008a.307.307 0 0 0-.065.05c-.051.048.909-1.911 2.745-4.636a55.924 55.924 0 0 1 3.77-4.957c2.004 2.484 4.107 4.687 6.066 6.59 2.502 2.43 4.362 4.013 4.416 4.056.28.227.74.59 1.076.5.29.183 1.17-.398 1.383-.61.13.03.288-.007.466-.234.117-.147.158-.267.157-.365.028-.027.058-.06.087-.098.236-.297.71-1.171.61-1.304l-.002-.002.004-.004c.318-.401.082-.598-.059-.713a2.64 2.64 0 0 0-.088-.063c-.11-.164-.55-.685-.629-.707l-.002-.002h-.006v.002h-.002v.002h-.002v.004c0 .014.01.043.034.088.033.064-1.91-1.311-4.553-3.447-2.174-1.757-4.516-3.807-6.748-6.156a65.6 65.6 0 0 1 1.76-1.791c5.76-5.64 12.436-9.97 12.402-10.024-.014-.021-.456.22-1.158.635.775-.547 1.264-.893 1.25-.916-.012-.018-.32.145-.826.438.594-.419.954-.676.94-.696-.015-.025-.64.318-1.589.885.244-.177.42-.306.512-.38 1.106-.766 1.852-1.273 1.834-1.302-.02-.033-1.063.543-2.51 1.416 1.19-.83 2.005-1.386 1.986-1.416zM8.366 99.308c-.17.294-.196.213.154-.499.304-.62.663-1.186.882-1.481.073-.14.126-.232.134-.245.246-.41.695-1.07 1.127-.756l.004.003c.28-.338 1.31-.005 1.613.245a.49.49 0 0 1 .09.097.412.412 0 0 1 .444.081c.222.19.185.435.082.658.182.233.612 1.376.365 1.86.049.381-.397 1.412-.578 1.94-.02.059-.534 1.138-.603 3.039-.064 1.678.332 4.195 2.03 6.422 2.172 2.963 7.79 5.2 12.14 2.606 2.002-1.122 3.6-3.07 4.391-5.283.847-2.35.777-4.967-.019-7.19-1.398-3.954-4.862-6.222-7.66-6.806-3.619-.77-6.072.795-6.086.764-.017-.038 1.32-.854 3.494-1.182-1.472.14-2.382.482-2.393.451h.001v-.002l.001-.002c.031-.034.446-.218 1.166-.418-1.02.209-1.617.434-1.626.41-.01-.027.627-.344 1.75-.631-2.56.507-4.162 1.554-4.185 1.516-.022-.039 1.522-1.21 4.149-1.844-3.088.602-5.014 2.029-5.04 1.988-.024-.036 1.347-1.173 3.8-2.008.2-.08.62-.229 1.172-.366-2.095.396-3.357 1.084-3.373 1.05-.014-.028.733-.491 2.087-.96-1.11.315-1.742.604-1.753.58-.015-.032 1.032-.655 2.881-1.105-1.607.307-2.547.73-2.56.7-.012-.03 2.437-1.755 6.907-1.158 3.461.584 7.84 3.052 9.875 8.017a13.754 13.754 0 0 1 .404 9.182 13.29 13.29 0 0 1-5.586 7.29c-6.16 3.717-13.513 1.358-17.19-3.002-2.528-3.066-3.267-6.526-3.289-9.073-.023-3.205.848-4.973.798-4.888z"/>
    <path style="fill:#ff0505;fill-opacity:1;stroke:none;stroke-width:1.50346;stroke-linecap:round;stroke-linejoin:round;paint-order:stroke fill markers" d="M103.28 91.25c-.34.008-.285-.056.504-.128a10.519 10.519 0 0 1 1.725-.02c.156-.008.263-.012.278-.012.48-.004 1.275.036 1.233.569v.005c.434.063.686 1.116.63 1.504a.496.496 0 0 1-.036.128.412.412 0 0 1 .162.42c-.047.29-.274.385-.519.413-.103.277-.856 1.24-1.398 1.28-.3.24-1.411.397-1.957.518-.06.013-1.248.136-2.907 1.068-1.466.819-3.41 2.468-4.425 5.078-1.398 3.397-.382 9.358 4.098 11.72 2 1.125 4.495 1.475 6.797.997 2.446-.5 4.644-1.923 6.128-3.76 2.647-3.254 2.779-7.392 1.82-10.085-1.227-3.49-3.84-4.769-3.821-4.797.023-.034 1.416.682 2.828 2.367-.887-1.183-1.653-1.783-1.632-1.808h.004c.045.009.42.266.965.777-.71-.762-1.213-1.154-1.197-1.175.018-.022.62.356 1.45 1.166-1.766-1.922-3.495-2.743-3.474-2.783.021-.04 1.825.67 3.735 2.581-2.122-2.322-4.343-3.223-4.322-3.267.018-.039 1.703.54 3.693 2.198.173.13.519.41.923.81-1.43-1.581-2.673-2.3-2.653-2.333.017-.025.801.37 1.907 1.283-.848-.784-1.423-1.173-1.408-1.195.02-.03 1.096.54 2.443 1.884-1.099-1.212-1.95-1.794-1.931-1.82.02-.027 2.768 1.165 4.586 5.292 1.304 3.26 1.479 8.282-1.7 12.606a13.754 13.754 0 0 1-7.628 5.127 13.29 13.29 0 0 1-9.133-.971c-6.382-3.324-8.196-10.829-6.39-16.239 1.3-3.755 3.87-6.188 6.033-7.533 2.723-1.689 4.685-1.866 4.588-1.864z"/>
    <path style="fill:#000;fill-opacity:1;stroke:none;stroke-width:3.99874;stroke-linecap:round;stroke-linejoin:round;paint-order:stroke fill markers" d="M64.278 8.859c-.666-.612-.443-.632 1.207.682 1.437 1.144 2.703 2.402 3.345 3.138.318.27.53.461.559.489.926.874 2.38 2.415 1.32 3.36a.396.396 0 0 1-.01.008c.716.922-.737 3.407-1.559 4.049-.101.079-.202.138-.304.18.061.415-.055.8-.463 1.106-.622.467-1.236.232-1.757-.164-.707.342-3.924.804-5.041-.114-1.016-.09-3.44-1.837-4.71-2.61-.138-.084-2.647-2.036-7.546-3.301-4.322-1.126-11.089-1.535-17.843 1.605-8.937 3.948-17.96 17.264-13.705 30.045 1.77 5.84 5.917 11.105 11.214 14.425 5.62 3.54 12.457 4.856 18.688 4.059 11.07-1.374 18.94-9.076 22.057-16.01 4.067-8.961 1.403-16.227 1.492-16.245.108-.023 1.463 3.917 1.073 9.75.476-3.903.109-6.464.195-6.473h.002v.002h.002l.002.003h.002l.002.002c.07.1.313 1.283.42 3.268.041-2.769-.204-4.448-.134-4.458.073-.01.535 1.824.638 4.908.146-6.942-1.66-11.701-1.548-11.738.114-.037 2.271 4.644 2.42 11.829.2-8.364-2.406-14.183-2.284-14.23.106-.04 2.278 4.172 3.046 11.02.093.566.239 1.743.28 3.255.166-5.668-.897-9.338-.799-9.363.078-.019.855 2.186 1.299 5.972-.183-3.065-.573-4.872-.503-4.887.09-.02 1.11 3.055 1.222 8.115.122-4.35-.441-7.033-.357-7.048.086-.016 3.17 7.332-.936 18.6-3.495 8.66-12.406 18.625-26.468 21.074-7.83 1.343-16.48.107-24.082-4.197C17.55 64.89 11.831 58.269 8.967 50.289 2.833 32.163 13.163 14.414 26.588 7.352c9.41-4.816 18.82-4.757 25.449-3.359 8.338 1.771 12.432 5.041 12.24 4.866z" transform="matrix(.37598 0 0 .37598 147.106 -31.447)"/>
    <path style="fill:#fff;fill-opacity:1;stroke:none;stroke-width:1.50346;stroke-linecap:round;stroke-linejoin:round;paint-order:stroke fill markers" d="M117.605 49.059c-.02-.03-.857.48-2.062 1.278.506-.395.807-.636.795-.654-.012-.017-.312.16-.804.477.33-.261.525-.42.533-.448v-.002c-.015-.021-.469.256-1.184.728 1.007-.78 1.678-1.29 1.659-1.317-.037-.053-6.979 4.22-13.12 10.004a66.17 66.17 0 0 0-1.774 1.735c-1.55-1.658-2.932-3.395-4.051-4.856-1.843-2.41-3.113-4.09-3.149-4.066h-.002v.004l-.001.002c.004.06.223.435.57 1.01-.508-.659-.846-1.062-.875-1.044l-.002.003v.002c.005.05.15.31.393.716-.374-.478-.62-.77-.663-.78h-.004c-.03.02.29.559.793 1.382a7.463 7.463 0 0 0-.359-.428c-.713-.93-1.216-1.536-1.25-1.512-.04.028.512.907 1.286 2.154-.762-1.004-1.306-1.666-1.342-1.64-.036.024.41.748 1.066 1.812-.31-.396-.518-.642-.57-.673l-.003-.002h-.002l-.002-.002h-.006v.004h-.002v.002c.004.05.147.306.385.707-.22-.274-.36-.437-.395-.45h-.008c-.026.019.202.417.583 1.05-.665-.875-1.121-1.435-1.154-1.412-.036.025 1.048 1.849 2.722 4.54 1.01 1.626 2.284 3.564 3.785 5.487l.167.212a59.393 59.393 0 0 0-4.27 5.353c-1.983 2.806-3.084 4.893-3.118 4.959-.196.378-.502.992-.404 1.311-.15.38.418 1.066.619 1.205-.017.146.029.295.24.392.138.064.246.06.331.021a.565.565 0 0 0 .09.05c.28.13 1.087.29 1.185.133l.004.002c.372.175.526-.134.616-.316a5.07 5.07 0 0 0 .048-.11c.16-.2.556-.782.572-.87v-.007l-.003-.002h-.008a.307.307 0 0 0-.062.054c-.05.05.824-1.95 2.54-4.752a55.925 55.925 0 0 1 3.55-5.116c2.112 2.394 4.309 4.504 6.348 6.32 2.605 2.319 4.532 3.82 4.588 3.86.29.214.766.557 1.097.453.299.17 1.151-.45 1.355-.67.13.025.287-.02.456-.254.11-.152.146-.273.14-.371.027-.03.056-.063.084-.102.222-.307.658-1.201.552-1.33l-.002-.002a.382.382 0 0 1 .004-.004c.3-.414.056-.6-.09-.71a3.722 3.722 0 0 0-.09-.058c-.118-.16-.58-.66-.66-.679l-.001-.002h-.006v.002h-.002v.002h-.002v.005a.25.25 0 0 0 .037.086c.036.062-1.965-1.227-4.698-3.246-2.248-1.66-4.678-3.607-7.01-5.857a65.603 65.603 0 0 1 1.68-1.866c5.51-5.885 11.991-10.501 11.955-10.553-.015-.021-.446.239-1.13.684.751-.58 1.225-.947 1.21-.97-.013-.016-.313.16-.807.474.576-.444.924-.716.91-.736-.017-.025-.626.345-1.55.953.237-.187.406-.323.495-.402 1.072-.813 1.795-1.352 1.776-1.38-.022-.032-1.039.589-2.446 1.524 1.153-.881 1.943-1.472 1.923-1.501zM35.141 50.607c-.016-.03-.907.378-2.196 1.03.549-.333.876-.537.865-.557-.01-.018-.328.123-.854.38.358-.22.57-.356.582-.382v-.002c-.012-.023-.495.2-1.26.585 1.09-.657 1.816-1.087 1.8-1.116-.03-.056-7.421 3.383-14.192 8.414a66.185 66.185 0 0 0-1.964 1.517c-1.347-1.826-2.518-3.712-3.46-5.293-1.55-2.607-2.617-4.425-2.655-4.404h-.002v.004l-.002.001c-.003.06.17.459.449 1.07-.428-.714-.717-1.154-.748-1.138l-.002.001v.002c-.001.05.113.326.307.757-.316-.517-.527-.835-.568-.852h-.004c-.033.017.223.59.627 1.465a7.463 7.463 0 0 0-.307-.467c-.6-1.007-1.03-1.666-1.066-1.646-.042.023.404.96 1.027 2.288-.64-1.085-1.104-1.806-1.142-1.785-.038.02.32.791.848 1.924-.262-.43-.44-.698-.488-.735l-.002-.002h-.002l-.002-.002h-.006v.003h-.002v.002c-.002.05.11.32.3.747-.187-.298-.308-.476-.34-.493H10.672c-.028.014.153.436.458 1.11-.559-.946-.947-1.556-.983-1.537-.039.021.826 1.958 2.176 4.826.816 1.732 1.856 3.805 3.123 5.889l.142.23a59.394 59.394 0 0 0-4.864 4.82c-2.294 2.558-3.63 4.503-3.672 4.564-.238.353-.613.927-.553 1.256-.193.36.292 1.106.475 1.268-.034.143-.006.297.193.418.13.078.237.088.326.059.024.021.051.04.084.06.263.161 1.046.414 1.161.27.001 0 .003 0 .004.002.35.217.538-.072.648-.243.005-.007.026-.042.06-.103.183-.18.644-.713.67-.797v-.008l-.001-.002h-.008a.31.31 0 0 0-.068.045c-.055.044 1.044-1.84 3.074-4.424a55.925 55.925 0 0 1 4.12-4.67c1.82 2.623 3.756 4.974 5.571 7.014 2.319 2.606 4.059 4.32 4.11 4.367.263.247.695.643 1.036.577.277.204 1.196-.312 1.424-.507.127.039.287.013.482-.2.127-.139.177-.255.183-.353.03-.025.062-.056.094-.09.256-.28.793-1.118.703-1.258l-.002-.002c.001 0 .003-.003.005-.003.346-.377.125-.59-.007-.716a2.79 2.79 0 0 0-.083-.068c-.099-.172-.5-.724-.576-.751l-.002-.002h-.006v.001h-.002v.002h-.002v.004a.258.258 0 0 0 .026.09c.029.066-1.81-1.447-4.29-3.77-2.04-1.91-4.226-4.125-6.282-6.63a65.603 65.603 0 0 1 1.886-1.659c6.156-5.205 13.129-9.038 13.099-9.094-.012-.022-.47.186-1.202.549.814-.49 1.327-.799 1.314-.823-.01-.018-.329.121-.856.376.623-.373 1-.604.99-.625-.015-.026-.662.27-1.65.767.256-.158.44-.274.538-.343 1.158-.682 1.939-1.133 1.923-1.163-.018-.035-1.1.463-2.606 1.23 1.248-.742 2.1-1.237 2.084-1.268zM77.308 8.935c-.017-.031-.906.38-2.194 1.034.547-.334.874-.54.864-.559-.01-.018-.328.123-.854.382.358-.221.57-.358.582-.384v-.002c-.012-.022-.495.2-1.26.588 1.09-.66 1.814-1.09 1.799-1.119-.03-.057-7.416 3.396-14.178 8.44a66.18 66.18 0 0 0-1.96 1.52c-1.35-1.824-2.525-3.707-3.47-5.287-1.555-2.604-2.625-4.42-2.663-4.4h-.002v.005l-.002.002c-.003.059.171.457.45 1.067-.429-.712-.718-1.15-.749-1.136l-.002.002v.002c-.001.05.113.326.308.756-.317-.516-.528-.834-.57-.85l-.002-.001h-.002c-.033.018.224.59.63 1.464a7.456 7.456 0 0 0-.307-.466c-.602-1.006-1.033-1.665-1.07-1.645-.042.024.406.96 1.032 2.286-.643-1.083-1.108-1.804-1.146-1.783-.038.021.321.791.852 1.923-.263-.429-.441-.697-.49-.734l-.002-.002H52.9l-.002-.002h-.006v.003h-.002v.002c-.002.05.11.32.301.746-.187-.298-.308-.475-.34-.492H52.841c-.028.014.153.436.46 1.109-.56-.945-.95-1.554-.986-1.535-.039.021.83 1.956 2.185 4.822.819 1.73 1.862 3.801 3.134 5.883l.142.23a59.394 59.394 0 0 0-4.855 4.83c-2.29 2.56-3.623 4.508-3.664 4.57-.238.353-.612.928-.551 1.256-.192.36.294 1.106.478 1.268-.034.143-.006.297.193.417.13.079.237.087.327.059.024.021.05.04.084.06.263.16 1.046.412 1.161.267l.004.002c.35.217.538-.073.648-.243l.06-.104c.182-.18.642-.714.668-.798v-.008l-.001-.002h-.008a.304.304 0 0 0-.068.045c-.055.044 1.041-1.842 3.066-4.43a55.925 55.925 0 0 1 4.112-4.677c1.824 2.62 3.765 4.967 5.583 7.003 2.324 2.602 4.067 4.313 4.117 4.36.264.246.697.641 1.038.575.278.203 1.195-.314 1.423-.51.127.04.288.013.482-.2.127-.139.176-.255.182-.353.03-.026.062-.056.094-.091.256-.28.791-1.12.7-1.259v-.002l.004-.003c.346-.378.124-.59-.008-.716a3.42 3.42 0 0 0-.083-.068c-.099-.172-.501-.723-.577-.75l-.002-.002h-.006v.001h-.002v.002h-.002v.004a.252.252 0 0 0 .026.09c.029.066-1.812-1.444-4.297-3.762-2.043-1.906-4.234-4.117-6.294-6.62a65.593 65.593 0 0 1 1.883-1.66c6.147-5.217 13.112-9.063 13.082-9.119-.012-.022-.47.187-1.2.551.812-.49 1.325-.8 1.312-.825-.01-.019-.33.122-.856.378.623-.375 1-.606.989-.627-.014-.027-.661.271-1.649.77.256-.159.44-.276.538-.344 1.157-.684 1.937-1.137 1.921-1.167-.018-.035-1.099.466-2.604 1.234 1.246-.744 2.099-1.24 2.082-1.271z"/>
    <path style="fill:#fff;fill-opacity:1;stroke:none;stroke-width:3.99874;stroke-linecap:round;stroke-linejoin:round;paint-order:stroke fill markers" d="M-270.333-95.665c-.447 3.895.071-6.343.257-8.596a121.71 121.71 0 0 1-.017-1.074c.005-1.823.02-4.898 1.38-4.898h.014c.072-1.628 2.712-3.345 3.728-3.346a.78.78 0 0 1 .344.077c.203-.616.522-1.03 1.022-1.03.767 0 1.109.997 1.261 2.182.792.356 3.45 3.575 3.552 6.925.741 2.014.757 7.767.757 11.286.001 2.385-3.242 293.526-3.677 293.526-.108 0-.247-7.219-.398-18.13-.112 7.341-.216 11.896-.301 11.896h-.002v-.005h-.002l-.002-.005h-.003l-.002-.005c-.057-.194-.122-2.347-.194-5.948-.088 5.02-.169 7.996-.238 7.996-.072 0-.16-3.298-.255-8.809-.158 12.408-.31 20.836-.426 20.836-.116 0-.271-8.498-.437-20.986-.175 14.543-.344 24.805-.472 24.805-.112 0-.26-7.77-.417-19.37-.044-1.015-.09-2.904-.141-5.497-.133 9.542-.258 15.705-.357 15.705-.078 0-.173-3.818-.277-10.096-.088 5.058-.17 8.059-.24 8.059-.09 0-.205-5.175-.33-13.387-.108 7.06-.21 11.412-.293 11.412-.435 0-3.57-295.844-3.836-293.524z" transform="matrix(.37598 0 0 .37598 141.306 47.268)"/>
    <path style="fill:#fff;fill-opacity:1;stroke:none;stroke-width:3.99874;stroke-linecap:round;stroke-linejoin:round;paint-order:stroke fill markers" d="M-270.333-95.665c-.447 3.895.071-6.343.257-8.596a121.71 121.71 0 0 1-.017-1.074c.005-1.823.02-4.898 1.38-4.898h.014c.072-1.628 2.712-3.345 3.728-3.346a.78.78 0 0 1 .344.077c.203-.616.522-1.03 1.022-1.03.767 0 1.109.997 1.261 2.182.792.356 3.45 3.575 3.552 6.925.741 2.014.757 7.767.757 11.286.001 2.385-3.242 293.526-3.677 293.526-.108 0-.247-7.219-.398-18.13-.112 7.341-.216 11.896-.301 11.896h-.002v-.005h-.002l-.002-.005h-.003l-.002-.005c-.057-.194-.122-2.347-.194-5.948-.088 5.02-.169 7.996-.238 7.996-.072 0-.16-3.298-.255-8.809-.158 12.408-.31 20.836-.426 20.836-.116 0-.271-8.498-.437-20.986-.175 14.543-.344 24.805-.472 24.805-.112 0-.26-7.77-.417-19.37-.044-1.015-.09-2.904-.141-5.497-.133 9.542-.258 15.705-.357 15.705-.078 0-.173-3.818-.277-10.096-.088 5.058-.17 8.059-.24 8.059-.09 0-.205-5.175-.33-13.387-.108 7.06-.21 11.412-.293 11.412-.435 0-3.57-295.844-3.836-293.524z" transform="matrix(.37598 0 0 .37598 183.362 47.768)"/>
    <path style="fill:#fff;fill-opacity:1;stroke:none;stroke-width:3.99874;stroke-linecap:round;stroke-linejoin:round;paint-order:stroke fill markers" d="M-331.44-85.938c-3.841-.432 6.254.047 8.475.224.614-.014.983-.02 1.059-.021 1.797-.002 4.828 0 4.834 1.361v.013c1.604.065 3.308 2.699 3.312 3.715a.79.79 0 0 1-.075.345c.609.2 1.019.517 1.021 1.018.003.766-.98 1.112-2.146 1.269-.348.793-3.511 3.464-6.812 3.58-1.983.748-7.655.786-11.123.8-2.352.01-289.36-2.093-289.36-2.528-.001-.108 7.114-.275 17.87-.469-7.238-.083-11.729-.17-11.729-.255v-.001h.005v-.002l.005-.002v-.002l.005-.001c.19-.058 2.313-.132 5.863-.218-4.949-.068-7.883-.137-7.883-.206 0-.073 3.25-.173 8.682-.29-12.232-.11-20.54-.228-20.54-.344-.001-.117 8.375-.305 20.684-.52-14.336-.118-24.452-.247-24.453-.375 0-.111 7.659-.29 19.092-.492 1-.048 2.863-.102 5.419-.163-9.407-.095-15.483-.196-15.483-.296 0-.078 3.763-.188 9.95-.316-4.985-.069-7.944-.139-7.944-.208 0-.091 5.1-.226 13.195-.382-6.96-.082-11.25-.165-11.25-.249-.003-.435 291.616-4.728 289.328-4.985z" transform="matrix(.37598 0 0 .37598 240.862 71.768)"/>
    <path style="fill:#fff;fill-opacity:1;stroke:none;stroke-width:3.99874;stroke-linecap:round;stroke-linejoin:round;paint-order:stroke fill markers" d="M-331.44-85.938c-3.841-.432 6.254.047 8.475.224.614-.014.983-.02 1.059-.021 1.797-.002 4.828 0 4.834 1.361v.013c1.604.065 3.308 2.699 3.312 3.715a.79.79 0 0 1-.075.345c.609.2 1.019.517 1.021 1.018.003.766-.98 1.112-2.146 1.269-.348.793-3.511 3.464-6.812 3.58-1.983.748-7.655.786-11.123.8-2.352.01-289.36-2.093-289.36-2.528-.001-.108 7.114-.275 17.87-.469-7.238-.083-11.729-.17-11.729-.255v-.001h.005v-.002l.005-.002v-.002l.005-.001c.19-.058 2.313-.132 5.863-.218-4.949-.068-7.883-.137-7.883-.206 0-.073 3.25-.173 8.682-.29-12.232-.11-20.54-.228-20.54-.344-.001-.117 8.375-.305 20.684-.52-14.336-.118-24.452-.247-24.453-.375 0-.111 7.659-.29 19.092-.492 1-.048 2.863-.102 5.419-.163-9.407-.095-15.483-.196-15.483-.296 0-.078 3.763-.188 9.95-.316-4.985-.069-7.944-.139-7.944-.208 0-.091 5.1-.226 13.195-.382-6.96-.082-11.25-.165-11.25-.249-.003-.435 291.616-4.728 289.328-4.985z" transform="matrix(.37598 0 0 .37598 240.945 114.031)"/>
    <path style="fill:#fff;fill-opacity:1;stroke:none;stroke-width:3.99874;stroke-linecap:round;stroke-linejoin:round;paint-order:stroke fill markers" d="M-248.229-167.414c3.358 3.984-5.931-6.025-7.924-8.277-.596-.58-.953-.927-1.025-1-1.716-1.72-4.606-4.626-3.644-5.59l.009-.008c-1.484-1.583-1.238-5.069-.52-5.788a.624.624 0 0 1 .316-.171c-.438-.724-.604-1.34-.25-1.694.541-.543 1.724.156 2.949 1.163.895-.224 5.81.926 9.04 4.008 2.424 1.373 7.86 6.78 11.18 10.093 2.25 2.246 274.519 278.707 274.211 279.015-.076.076-6.982-6.623-17.378-16.791C25.579 94.538 29.8 98.9 29.74 98.962l-.002.001-.004-.004h-.001l-.006-.003-.001.002-.006-.004c-.223-.142-2.3-2.123-5.747-5.463 4.672 4.788 7.421 7.648 7.372 7.697-.051.051-3.222-2.993-8.487-8.114 11.59 11.796 19.43 19.84 19.348 19.922-.082.082-8.205-7.81-20.099-19.453 13.59 13.819 23.148 23.602 23.058 23.692-.079.08-7.511-7.133-18.56-17.945a501.955 501.955 0 0 1-5.285-5.077c8.905 9.08 14.629 14.972 14.559 15.042-.055.055-3.723-3.473-9.717-9.31 4.707 4.824 7.48 7.708 7.43 7.757-.064.064-5.025-4.727-12.857-12.373 6.58 6.725 10.614 10.895 10.555 10.955-.308.308-281.52-276.071-279.52-273.698z" transform="matrix(.37598 0 0 .37598 105.45 78.485)"/>
</svg>
